<?xml version="1.0" encoding="UTF-8"?>
<svg xmlns="http://www.w3.org/2000/svg" viewBox="0 0 32 32">
  <style>
    .logo-red {fill:#da291c;}
  </style>
  <!-- Fortinet logo blocks optimized for favicon -->
  <path class="logo-red" d="M25.5 11.7v4.6h-7.2v-4.6h7.2zm-16.3 11.2h7.2v-4.6h-7.2v4.6zm16.3-13.9c0-2.1-1.7-3.9-3.9-3.9h-3.3v4.6h7.2V9zm-16.3-3.9v4.6h7.2V5.1h-7.2zM2.5 11.7v4.6h7.2v-4.6H2.5zm18.3 11.2h3.3c2.1 0 3.9-1.7 3.9-3.9v-0.7h-7.2v4.6zM2.5 18.3c0 2.1 1.7 3.9 3.9 3.9h3.3v-4.6H2.5v0.7zm0-10v0.7h7.2V5.1H6.4c-2.1 0-3.9 1.7-3.9 3.9z"/>
</svg> 